<svg width="130" height="130" viewBox="0 0 130 130" fill="none" xmlns="http://www.w3.org/2000/svg">
<g filter="url(#filter0_d_15_252)">
<rect x="14" y="4" width="82" height="82" rx="16" fill="#D2FF28"/>
</g>
<rect x="30" y="20" width="50" height="50" rx="8" fill="#494949"/>
<g clip-path="url(#clip0_15_252)">
<path d="M57.75 55.13V57C57.19 57.07 56.56 57.11 55.89 57.13V55.25C56.5633 55.23 57.1833 55.19 57.75 55.13ZM52.17 55.13C52.75 55.2033 53.37 55.2533 54.03 55.28V57.1C53.36 57.1 52.74 57.02 52.17 56.94V55.13ZM62.4 54V55.63C61.5311 56.1061 60.5931 56.4435 59.62 56.63V54.84C60.5705 54.646 61.5011 54.3648 62.4 54ZM47.52 54C48.4228 54.3634 49.3566 54.6446 50.31 54.84V56.65C49.3394 56.4432 48.401 56.1069 47.52 55.65V54ZM64.27 52.52H67.05V54.38H64.27V52.52ZM42.87 52.52H45.66V54.38H42.87V52.52ZM51.31 47.87C51.6 47.87 51.98 48.12 52.54 48.59C53.1859 49.2405 54.0456 49.6348 54.96 49.7C55.8812 49.6265 56.7446 49.2214 57.39 48.56C57.95 48.09 58.32 47.84 58.62 47.84C59.28 47.9821 59.9075 48.2466 60.47 48.62C60.8896 48.8866 61.2936 49.1771 61.68 49.49C62.1123 50.1347 62.3612 50.8848 62.4 51.66C62.53 52.13 61.48 52.38 61.05 52.55C59.1117 53.1691 57.0843 53.463 55.05 53.42C52.6585 53.474 50.2798 53.056 48.05 52.19C47.62 52.02 47.48 51.84 47.52 51.66C47.6026 50.8922 47.8518 50.1516 48.25 49.49C48.6317 49.1756 49.0325 48.885 49.45 48.62C50.0151 48.2446 50.6462 47.98 51.31 47.84V47.87ZM51.31 44.15C51.6 44.15 51.98 44.4 52.54 44.86C53.1791 45.5246 54.0406 45.9304 54.96 46C55.8838 45.9283 56.7488 45.5189 57.39 44.85C57.95 44.39 58.32 44.14 58.62 44.14C59.2801 44.2869 59.9074 44.5548 60.47 44.93C60.83 45.15 61.13 45.37 61.35 45.53C61.35 45.99 61.35 46.53 61.46 47.07C60.6354 46.4487 59.6496 46.0773 58.62 46C57.6968 46.0662 56.831 46.4724 56.19 47.14C55.63 47.61 55.25 47.86 54.96 47.86C54.67 47.86 54.29 47.61 53.73 47.14C53.0943 46.4707 52.2309 46.0639 51.31 46C50.2798 46.0734 49.2916 46.4375 48.46 47.05C48.53 46.47 48.57 45.96 48.58 45.51C48.8 45.35 49.1 45.13 49.45 44.91C50.0151 44.5326 50.646 44.2646 51.31 44.12V44.15ZM46.01 38.67C48.8581 39.8627 51.9227 40.4518 55.01 40.4C58.0972 40.4501 61.1614 39.8611 64.01 38.67C64.8599 39.2957 65.4899 40.1743 65.81 41.18C66.4 42.75 66.92 46 67.03 50.63H64.16C63.395 47.9171 63.1173 45.0899 63.34 42.28C63.34 42.1579 63.3159 42.0369 63.2692 41.9241C63.2225 41.8113 63.154 41.7088 63.0676 41.6224C62.9812 41.536 62.8787 41.4675 62.7659 41.4208C62.6531 41.3741 62.5321 41.35 62.41 41.35C62.2879 41.35 62.1669 41.3741 62.0541 41.4208C61.9413 41.4675 61.8388 41.536 61.7524 41.6224C61.666 41.7088 61.5975 41.8113 61.5508 41.9241C61.5041 42.0369 61.48 42.1579 61.48 42.28C61.48 42.66 61.48 43 61.42 43.34C60.6002 42.7483 59.6292 42.4015 58.62 42.34C57.6981 42.4109 56.8338 42.8163 56.19 43.48C55.63 43.95 55.25 44.2 54.96 44.2C54.67 44.2 54.29 43.95 53.73 43.48C53.0915 42.8146 52.2296 42.4087 51.31 42.34C50.3008 42.4015 49.3298 42.7483 48.51 43.34C48.51 42.99 48.46 42.66 48.45 42.28C48.45 42.0334 48.352 41.7968 48.1776 41.6224C48.0032 41.448 47.7667 41.35 47.52 41.35C47.2733 41.35 47.0368 41.448 46.8624 41.6224C46.688 41.7968 46.59 42.0334 46.59 42.28C46.8079 45.0905 46.5269 47.9174 45.76 50.63H42.96C42.9128 47.4385 43.3203 44.2566 44.17 41.18C44.3706 40.6043 44.6499 40.0591 45 39.56C45.2983 39.2224 45.6376 38.9235 46.01 38.67ZM50.29 36.72C51.7978 37.2305 53.3698 37.5268 54.96 37.6C56.5533 37.5255 58.1284 37.2293 59.64 36.72C60.3728 36.9291 61.091 37.1863 61.79 37.49C59.5811 38.1848 57.2754 38.5224 54.96 38.49C52.6478 38.5234 50.3453 38.1857 48.14 37.49C48.8381 37.1842 49.5565 36.9269 50.29 36.72ZM52.29 32.86C52.4121 32.8707 52.5328 32.8941 52.65 32.93C54.2026 33.145 55.7774 33.145 57.33 32.93C58.12 32.79 58.17 33.02 58.33 33.47L58.61 35.07C57.4275 35.4521 56.2008 35.6807 54.96 35.75C53.7394 35.6756 52.5332 35.4471 51.37 35.07L51.66 33.47C51.78 33 51.96 32.84 52.26 32.86H52.29ZM57.8 31C57.4835 31.0015 57.1682 31.0384 56.86 31.11C55.5987 31.275 54.3213 31.275 53.06 31.11C52.4452 30.957 51.7994 30.9848 51.2 31.19C50.8785 31.3361 50.5944 31.5533 50.3692 31.8253C50.144 32.0973 49.9836 32.4169 49.9 32.76C49.76 33.5 49.63 34.26 49.5 35.01C49.09 35.13 48.5 35.31 47.87 35.58C46.4895 36.0856 45.2196 36.853 44.13 37.84C43.3752 38.5974 42.8039 39.5176 42.46 40.53C41.71 42.53 41 45.9 41 51.53V54.32C41.0052 54.8134 41.2043 55.285 41.5541 55.6329C41.9039 55.9809 42.3766 56.1774 42.87 56.18H45.66C45.6585 56.3338 45.6952 56.4855 45.7668 56.6216C45.8383 56.7578 45.9425 56.874 46.07 56.96C46.8071 57.3789 47.5886 57.7143 48.4 57.96C50.5602 58.6425 52.8146 58.98 55.08 58.96C57.3098 58.9862 59.529 58.6485 61.65 57.96C62.4327 57.7406 63.1827 57.4177 63.88 57C63.9991 56.9141 64.0963 56.8016 64.1641 56.6713C64.2318 56.5411 64.2681 56.3968 64.27 56.25H67.05C67.3011 56.254 67.5504 56.2077 67.7833 56.1138C68.0162 56.0198 68.2279 55.8802 68.406 55.7031C68.584 55.526 68.7248 55.315 68.8199 55.0826C68.9151 54.8502 68.9627 54.6011 68.96 54.35V51.56C68.96 45.9 68.26 42.56 67.51 40.56C67.1591 39.5486 66.5849 38.6292 65.83 37.87C64.742 36.8809 63.4716 36.1133 62.09 35.61C61.5479 35.3772 60.9938 35.1736 60.43 35L60.03 32.81C59.9675 32.4512 59.8169 32.1136 59.5918 31.8273C59.3666 31.5411 59.074 31.3152 58.74 31.17C58.4398 31.056 58.1211 30.9984 57.8 31Z" fill="#D2FF28"/>
</g>
<defs>
<filter id="filter0_d_15_252" x="0" y="0" width="130" height="130" filterUnits="userSpaceOnUse" color-interpolation-filters="sRGB">
<feFlood flood-opacity="0" result="BackgroundImageFix"/>
<feColorMatrix in="SourceAlpha" type="matrix" values="0 0 0 0 0 0 0 0 0 0 0 0 0 0 0 0 0 0 127 0" result="hardAlpha"/>
<feOffset dx="10" dy="20"/>
<feGaussianBlur stdDeviation="12"/>
<feColorMatrix type="matrix" values="0 0 0 0 0.295833 0 0 0 0 0.295833 0 0 0 0 0.295833 0 0 0 0.1 0"/>
<feBlend mode="normal" in2="BackgroundImageFix" result="effect1_dropShadow_15_252"/>
<feBlend mode="normal" in="SourceGraphic" in2="effect1_dropShadow_15_252" result="shape"/>
</filter>
<clipPath id="clip0_15_252">
<rect width="27.91" height="28" fill="white" transform="translate(41 31)"/>
</clipPath>
</defs>
</svg>
