<svg width="130" height="130" viewBox="0 0 130 130" fill="none" xmlns="http://www.w3.org/2000/svg">
<g filter="url(#filter0_d_15_257)">
<rect x="14" y="4" width="82" height="82" rx="16" fill="#D2FF28"/>
</g>
<rect x="30" y="20" width="50" height="50" rx="8" fill="#494949"/>
<g clip-path="url(#clip0_15_257)">
<path d="M49.47 56.2H60.67C60.6727 56.3233 60.6505 56.4459 60.6049 56.5606C60.5592 56.6752 60.491 56.7794 60.4042 56.8671C60.3175 56.9548 60.2139 57.0242 60.0998 57.071C59.9857 57.1179 59.8634 57.1414 59.74 57.14H50.4C50.2766 57.1414 50.1543 57.1179 50.0402 57.071C49.9261 57.0242 49.8225 56.9548 49.7358 56.8671C49.649 56.7794 49.5808 56.6752 49.5351 56.5606C49.4895 56.4459 49.4673 56.3233 49.47 56.2ZM63.47 49.67H65.34V51.54H63.47V49.67ZM44.8 49.67H46.67V51.54H44.8V49.67ZM58.8 47.79C58.6552 47.7931 58.5131 47.8297 58.3847 47.8968C58.2564 47.9639 58.1453 48.0598 58.0601 48.1769C57.9749 48.294 57.918 48.4293 57.8937 48.572C57.8693 48.7148 57.8784 48.8613 57.92 49L58.85 51.81C58.8894 51.9262 58.9513 52.0335 59.0322 52.1258C59.113 52.2181 59.2113 52.2936 59.3213 52.3479C59.4314 52.4022 59.551 52.4344 59.6735 52.4424C59.7959 52.4505 59.9188 52.4344 60.035 52.395C60.1512 52.3556 60.2585 52.2937 60.3508 52.2128C60.4431 52.132 60.5186 52.0337 60.5729 51.9237C60.6272 51.8136 60.6594 51.694 60.6674 51.5715C60.6755 51.4491 60.6594 51.3262 60.62 51.21L59.69 48.41C59.6217 48.2207 59.4946 48.0584 59.3272 47.9468C59.1598 47.8352 58.961 47.7802 58.76 47.79H58.8ZM51.39 47.79C51.19 47.7872 50.9945 47.8489 50.8324 47.966C50.6702 48.0831 50.5502 48.2493 50.49 48.44L49.56 51.24C49.5206 51.3562 49.5045 51.4791 49.5126 51.6015C49.5206 51.724 49.5528 51.8436 49.6071 51.9537C49.6614 52.0637 49.7369 52.162 49.8292 52.2428C49.9215 52.3237 50.0288 52.3856 50.145 52.425C50.2612 52.4644 50.3841 52.4805 50.5065 52.4724C50.629 52.4644 50.7486 52.4322 50.8587 52.3779C51.0809 52.2682 51.2504 52.0747 51.33 51.84L52.22 49C52.2636 48.862 52.2744 48.7158 52.2515 48.5729C52.2286 48.43 52.1728 48.2944 52.0883 48.1769C52.0038 48.0595 51.8931 47.9633 51.7649 47.8961C51.6368 47.829 51.4947 47.7926 51.35 47.79H51.39ZM57.87 42.2C57.6841 42.2 57.5023 42.2551 57.3478 42.3584C57.1932 42.4617 57.0727 42.6085 57.0016 42.7803C56.9304 42.952 56.9118 43.141 56.9481 43.3234C56.9843 43.5057 57.0739 43.6732 57.2053 43.8047C57.3368 43.9361 57.5043 44.0257 57.6866 44.0619C57.869 44.0982 58.058 44.0796 58.2297 44.0084C58.4015 43.9373 58.5483 43.8168 58.6516 43.6622C58.7549 43.5077 58.81 43.3259 58.81 43.14C58.8113 43.0162 58.7879 42.8934 58.7412 42.7787C58.6944 42.664 58.6252 42.5599 58.5377 42.4723C58.4501 42.3848 58.346 42.3156 58.2313 42.2688C58.1166 42.2221 57.9938 42.1987 57.87 42.2ZM57.87 38.47C57.6387 38.494 57.4245 38.6028 57.2687 38.7755C57.113 38.9482 57.0268 39.1725 57.0268 39.405C57.0268 39.6375 57.113 39.8618 57.2687 40.0345C57.4245 40.2072 57.6387 40.316 57.87 40.34C58.0009 40.3536 58.1332 40.3395 58.2583 40.2987C58.3834 40.2578 58.4986 40.1912 58.5963 40.1031C58.6941 40.0149 58.7722 39.9073 58.8257 39.787C58.8792 39.6668 58.9068 39.5366 58.9068 39.405C58.9068 39.2734 58.8792 39.1432 58.8257 39.023C58.7722 38.9027 58.6941 38.7951 58.5963 38.7069C58.4986 38.6188 58.3834 38.5522 58.2583 38.5113C58.1332 38.4705 58.0009 38.4564 57.87 38.47ZM63.47 37L65.13 37.57C65.4729 37.745 65.7608 38.0113 65.9619 38.3395C66.1631 38.6677 66.2697 39.0451 66.27 39.43V47.83H63.47V37ZM46.67 37V47.81H43.87V39.41C43.8758 39.0187 43.9914 38.6369 44.2035 38.3081C44.4157 37.9793 44.7159 37.7166 45.07 37.55L46.67 37ZM51.12 35.44C51.3147 35.7874 51.5974 36.0775 51.9397 36.2811C52.282 36.4847 52.6718 36.5947 53.07 36.6H54.07V54.34H48.54V36.34L51.12 35.44ZM59.05 35.44L61.6 36.38V54.38H56V36.6H57C57.4244 36.6095 57.843 36.5003 58.2087 36.2848C58.5745 36.0693 58.8727 35.7559 59.07 35.38L59.05 35.44ZM51.91 32.87H58.23L57.41 34.51C57.3757 34.5781 57.3227 34.635 57.2571 34.674C57.1916 34.713 57.1162 34.7324 57.04 34.73H53.07C52.9938 34.7324 52.9184 34.713 52.8529 34.674C52.7873 34.635 52.7343 34.5781 52.7 34.51L51.91 32.87ZM51.24 31C50.9954 31.0072 50.7564 31.075 50.5444 31.1972C50.3324 31.3194 50.154 31.4923 50.0252 31.7004C49.8964 31.9084 49.8212 32.1452 49.8063 32.3894C49.7914 32.6337 49.8374 32.8778 49.94 33.1L50.26 33.74C48.14 34.5 46.07 35.23 44.19 35.86C43.5337 36.193 42.982 36.7006 42.5956 37.3269C42.2092 37.9533 42.0031 38.6741 42 39.41V48.73C42 48.9776 42.0976 49.2152 42.2718 49.3912C42.4459 49.5672 42.6824 49.6674 42.93 49.67V51.54C42.9352 52.0343 43.1339 52.507 43.4835 52.8565C43.833 53.2061 44.3057 53.4048 44.8 53.41H46.67V54.34C46.6729 54.6645 46.7601 54.9826 46.9232 55.2631C47.0863 55.5436 47.3195 55.7769 47.6 55.94V56.2C47.6026 56.9418 47.8985 57.6525 48.423 58.177C48.9475 58.7015 49.6582 58.9974 50.4 59H59.74C60.4818 58.9974 61.1925 58.7015 61.717 58.177C62.2415 57.6525 62.5374 56.9418 62.54 56.2V55.94C62.8205 55.7769 63.0537 55.5436 63.2168 55.2631C63.3799 54.9826 63.4671 54.6645 63.47 54.34V53.41H65.34C65.8343 53.4048 66.307 53.2061 66.6565 52.8565C67.0061 52.507 67.2048 52.0343 67.21 51.54V49.67C67.4576 49.6674 67.6941 49.5672 67.8682 49.3912C68.0424 49.2152 68.14 48.9776 68.14 48.73V39.41C68.1437 38.6726 67.9405 37.949 67.5533 37.3214C67.1662 36.6938 66.6107 36.1875 65.95 35.86C63.84 35.16 61.69 34.37 59.89 33.71L60.2 33.1C60.3023 32.8786 60.3484 32.6353 60.334 32.3919C60.3196 32.1484 60.2453 31.9122 60.1176 31.7044C59.99 31.4965 59.8129 31.3235 59.6022 31.2006C59.3915 31.0777 59.1537 31.0088 58.91 31H51.24Z" fill="#D2FF28"/>
</g>
<defs>
<filter id="filter0_d_15_257" x="0" y="0" width="130" height="130" filterUnits="userSpaceOnUse" color-interpolation-filters="sRGB">
<feFlood flood-opacity="0" result="BackgroundImageFix"/>
<feColorMatrix in="SourceAlpha" type="matrix" values="0 0 0 0 0 0 0 0 0 0 0 0 0 0 0 0 0 0 127 0" result="hardAlpha"/>
<feOffset dx="10" dy="20"/>
<feGaussianBlur stdDeviation="12"/>
<feColorMatrix type="matrix" values="0 0 0 0 0.295833 0 0 0 0 0.295833 0 0 0 0 0.295833 0 0 0 0.1 0"/>
<feBlend mode="normal" in2="BackgroundImageFix" result="effect1_dropShadow_15_257"/>
<feBlend mode="normal" in="SourceGraphic" in2="effect1_dropShadow_15_257" result="shape"/>
</filter>
<clipPath id="clip0_15_257">
<rect width="26.13" height="28" fill="white" transform="translate(42 31)"/>
</clipPath>
</defs>
</svg>
