<svg width="130" height="130" viewBox="0 0 130 130" fill="none" xmlns="http://www.w3.org/2000/svg">
<g filter="url(#filter0_d_15_262)">
<rect x="14" y="4" width="82" height="82" rx="16" fill="#D2FF28"/>
</g>
<rect x="30" y="20" width="50" height="50" rx="8" fill="#494949"/>
<g clip-path="url(#clip0_15_262)">
<path d="M47.6899 56.18H61.8299C61.7139 56.4632 61.5156 56.7051 61.2607 56.8745C61.0057 57.0438 60.7059 57.1328 60.3999 57.13H49.1199C48.8138 57.1328 48.514 57.0438 48.2591 56.8745C48.0041 56.7051 47.8059 56.4632 47.6899 56.18ZM48.4799 34.76C48.6397 35.0572 48.8456 35.3272 49.0899 35.56C49.6159 36.0209 50.2228 36.3803 50.8799 36.62C52.1154 37.1124 53.43 37.3767 54.7599 37.4C56.0896 37.3756 57.404 37.1114 58.6399 36.62C59.2969 36.3803 59.9038 36.0209 60.4299 35.56C60.6741 35.3272 60.88 35.0572 61.0399 34.76C61.4599 34.87 61.9899 35.02 62.5399 35.22C63.7399 35.66 64.9899 36.22 65.1599 36.85L66.0199 41.15H64.8399C64.5906 41.15 64.3515 41.249 64.1752 41.4253C63.9989 41.6016 63.8999 41.8407 63.8999 42.09C63.8999 42.3393 63.9989 42.5784 64.1752 42.7547C64.3515 42.931 64.5906 43.03 64.8399 43.03H66.3899L66.6199 44.19C66.6418 44.2777 66.6429 44.3694 66.6231 44.4577C66.6033 44.5459 66.5631 44.6283 66.5058 44.6983C66.4485 44.7682 66.3756 44.8238 66.2929 44.8606C66.2103 44.8973 66.1202 44.9143 66.0299 44.91H62.6099L62.2999 42.26L63.1099 40.63C63.1813 40.5192 63.2286 40.3945 63.2487 40.2642C63.2689 40.1339 63.2613 40.0008 63.2266 39.8735C63.192 39.7463 63.1309 39.6278 63.0474 39.5257C62.964 39.4236 62.8599 39.3403 62.7421 39.281C62.6243 39.2218 62.4954 39.188 62.3636 39.1818C62.2319 39.1756 62.1004 39.1973 61.9776 39.2453C61.8547 39.2933 61.7434 39.3666 61.6508 39.4604C61.5581 39.5543 61.4863 39.6666 61.4399 39.79L60.4999 41.66C60.4164 41.8269 60.385 42.015 60.4099 42.2L61.8299 54.31H47.6899L49.1099 42.2C49.1347 42.015 49.1034 41.8269 49.0199 41.66L48.0799 39.79C47.9989 39.6183 47.8674 39.4755 47.7029 39.3808C47.5385 39.2861 47.349 39.2439 47.1599 39.26C47.0052 39.2723 46.856 39.3226 46.7256 39.4066C46.5951 39.4905 46.4875 39.6054 46.4122 39.7411C46.337 39.8767 46.2965 40.0289 46.2943 40.184C46.2922 40.3391 46.3284 40.4923 46.3999 40.63L47.2199 42.26L46.9099 44.91H43.4899C43.3993 44.9138 43.3091 44.8966 43.2262 44.8599C43.1433 44.8232 43.07 44.7679 43.012 44.6982C42.954 44.6286 42.9128 44.5465 42.8916 44.4584C42.8704 44.3702 42.8698 44.2784 42.8899 44.19L43.1199 43H44.6299C44.8792 43 45.1183 42.901 45.2945 42.7247C45.4708 42.5484 45.5699 42.3093 45.5699 42.06C45.5699 41.8107 45.4708 41.5716 45.2945 41.3953C45.1183 41.219 44.8792 41.12 44.6299 41.12H43.4999L44.2999 37.06C44.5899 36 45.7599 35.65 46.9799 35.22C47.5299 35 48.0599 34.87 48.4799 34.76ZM50.7599 32.92C51.0998 32.988 51.4341 33.0816 51.7599 33.2C52.7293 33.508 53.743 33.6533 54.7599 33.63C55.7767 33.6533 56.7905 33.508 57.7599 33.2C58.0857 33.0816 58.4199 32.988 58.7599 32.92C59.0599 32.92 59.2199 32.92 59.1499 32.92C59.3299 33.04 59.4699 33.13 59.4699 33.66C59.4638 33.7668 59.4336 33.8708 59.3817 33.9643C59.3297 34.0578 59.2573 34.1384 59.1699 34.2C58.8065 34.4965 58.398 34.7328 57.9599 34.9C56.9337 35.2769 55.8527 35.4829 54.7599 35.51C53.6693 35.4754 52.5917 35.2626 51.5699 34.88C51.1317 34.7128 50.7232 34.4765 50.3599 34.18C50.2724 34.1184 50.2 34.0378 50.1481 33.9443C50.0961 33.8508 50.066 33.7468 50.0599 33.64C50.1099 32.92 50.3999 32.83 50.7599 32.92ZM50.2499 31C49.9198 31.0211 49.6018 31.1317 49.3299 31.32C48.8088 31.693 48.4368 32.2387 48.2799 32.86C47.62 33.0224 46.9691 33.2194 46.3299 33.45C44.6199 34.18 42.9899 34.63 42.5599 36.27L41.0499 43.82C40.974 44.1826 40.98 44.5577 41.0674 44.9177C41.1549 45.2777 41.3216 45.6137 41.5553 45.9011C41.7891 46.1886 42.0841 46.4202 42.4188 46.5792C42.7534 46.7381 43.1194 46.8204 43.4899 46.82H46.6799L45.6799 55.2C45.6324 55.6804 45.686 56.1655 45.8373 56.6239C45.9885 57.0824 46.234 57.5042 46.558 57.8621C46.882 58.22 47.2773 58.5061 47.7185 58.7021C48.1598 58.8981 48.6371 58.9995 49.1199 59H60.3999C60.8847 58.9973 61.3635 58.8928 61.8054 58.6932C62.2472 58.4936 62.6421 58.2033 62.9646 57.8413C63.2871 57.4792 63.5298 57.0534 63.6772 56.5915C63.8245 56.1296 63.8731 55.6419 63.8199 55.16L62.8199 46.78H66.0099C66.3804 46.7804 66.7463 46.6981 67.081 46.5392C67.4156 46.3802 67.7106 46.1486 67.9444 45.8611C68.1782 45.5737 68.3449 45.2377 68.4323 44.8777C68.5197 44.5177 68.5257 44.1426 68.4499 43.78L66.9599 36.27C66.5099 34.66 64.5299 34 63.1899 33.45C62.5506 33.2194 61.8997 33.0224 61.2399 32.86C61.0808 32.2423 60.709 31.7005 60.1899 31.33C59.93 31.1682 59.6397 31.0616 59.3369 31.0169C59.0341 30.9721 58.7254 30.9902 58.4299 31.07C57.9951 31.1547 57.5672 31.2717 57.1499 31.42C56.3768 31.6607 55.5693 31.7722 54.7599 31.75C53.9504 31.7731 53.1427 31.6616 52.3699 31.42C51.9525 31.2717 51.5246 31.1547 51.0899 31.07C50.8149 31.0052 50.5318 30.9816 50.2499 31Z" fill="#D2FF28"/>
</g>
<defs>
<filter id="filter0_d_15_262" x="0" y="0" width="130" height="130" filterUnits="userSpaceOnUse" color-interpolation-filters="sRGB">
<feFlood flood-opacity="0" result="BackgroundImageFix"/>
<feColorMatrix in="SourceAlpha" type="matrix" values="0 0 0 0 0 0 0 0 0 0 0 0 0 0 0 0 0 0 127 0" result="hardAlpha"/>
<feOffset dx="10" dy="20"/>
<feGaussianBlur stdDeviation="12"/>
<feColorMatrix type="matrix" values="0 0 0 0 0.295833 0 0 0 0 0.295833 0 0 0 0 0.295833 0 0 0 0.1 0"/>
<feBlend mode="normal" in2="BackgroundImageFix" result="effect1_dropShadow_15_262"/>
<feBlend mode="normal" in="SourceGraphic" in2="effect1_dropShadow_15_262" result="shape"/>
</filter>
<clipPath id="clip0_15_262">
<rect width="27.52" height="28" fill="white" transform="translate(41 31)"/>
</clipPath>
</defs>
</svg>
