<svg width="903" height="1088" viewBox="0 0 903 1088" fill="none" xmlns="http://www.w3.org/2000/svg">
<rect x="328.251" width="574.749" height="1080.6" fill="#D2FF28"/>
<rect width="70.7271" height="82.7652" transform="matrix(0.865816 0.500363 -0.380421 0.924814 365.746 781.143)" fill="#494949"/>
<rect width="116.042" height="143.128" rx="50" transform="matrix(0.974505 0.224364 -0.16172 0.986837 346.71 624.398)" fill="#494949"/>
<path d="M37.9337 1046.91C49.2573 1071.83 73.2902 1082.52 73.2902 1082.52C73.2902 1082.52 78.9637 1052.82 67.6401 1027.91C56.3165 1002.99 32.2836 992.295 32.2836 992.295C32.2836 992.295 26.6101 1022 37.9337 1046.91Z" fill="black"/>
<path d="M45.7163 1038.72C66.1601 1053.31 74.0336 1082.29 74.0336 1082.29C74.0336 1082.29 48.7612 1087.62 28.3174 1073.03C7.87357 1058.43 0 1029.45 0 1029.45C0 1029.45 25.2724 1024.12 45.7163 1038.72Z" fill="#494949"/>
<path d="M504.069 315.26H376.514V317.422H504.069V315.26Z" fill="#D2FF28"/>
<path d="M469.447 316.882H467.625V336.88H469.447V316.882Z" fill="#D2FF28"/>
<path d="M413.869 316.882H412.047V336.88H413.869V316.882Z" fill="#D2FF28"/>
<path d="M568.758 419.036H441.203V421.198H568.758V419.036Z" fill="#D2FF28"/>
<path d="M477.646 399.579H475.824V419.577H477.646V399.579Z" fill="#D2FF28"/>
<path d="M533.225 399.579H531.402V419.577H533.225V399.579Z" fill="#D2FF28"/>
<path d="M738.225 467.681H610.67V469.843H738.225V467.681Z" fill="#D2FF28"/>
<path d="M647.113 448.223H645.291V468.222H647.113V448.223Z" fill="#D2FF28"/>
<path d="M702.691 448.223H700.869V468.222H702.691V448.223Z" fill="#D2FF28"/>
<path d="M725.469 969.265H597.914V971.427H725.469V969.265Z" fill="#D2FF28"/>
<path d="M634.359 949.807H632.537V969.805H634.359V949.807Z" fill="#D2FF28"/>
<path d="M689.936 949.807H688.113V969.805H689.936V949.807Z" fill="#D2FF28"/>
<path d="M507.713 622.264H380.158V624.426H507.713V622.264Z" fill="#D2FF28"/>
<path d="M416.603 602.806H414.781V622.804H416.603V602.806Z" fill="#D2FF28"/>
<path d="M472.182 602.806H470.359V622.804H472.182V602.806Z" fill="#D2FF28"/>
<path d="M547.803 882.784H420.248V884.946H547.803V882.784Z" fill="#D2FF28"/>
<path d="M456.691 863.326H454.869V883.325H456.691V863.326Z" fill="#D2FF28"/>
<path d="M512.27 863.326H510.447V883.325H512.27V863.326Z" fill="#D2FF28"/>
<path d="M751.891 803.871H624.336V806.033H751.891V803.871Z" fill="#D2FF28"/>
<path d="M660.779 784.413H658.957V804.411H660.779V784.413Z" fill="#D2FF28"/>
<path d="M716.357 784.413H714.535V804.411H716.357V784.413Z" fill="#D2FF28"/>
<path d="M351.413 1044.69L139.634 995.932L139.93 994.125L350.185 1042.53L364.553 954.859L172.101 910.551L166.539 885.289L168.041 884.823L173.357 908.963L366.373 953.402L351.413 1044.69Z" fill="#201F30"/>
<path d="M160.563 1046.71C169.398 1048.74 177.953 1041.9 179.671 1031.41C181.389 1020.93 175.619 1010.78 166.784 1008.75C157.949 1006.71 149.394 1013.56 147.676 1024.05C145.958 1034.53 151.728 1044.68 160.563 1046.71Z" fill="black"/>
<path d="M318.255 1083.02C327.091 1085.05 335.646 1078.2 337.364 1067.72C339.081 1057.24 333.312 1047.09 324.476 1045.06C315.641 1043.02 307.086 1049.87 305.368 1060.35C303.65 1070.84 309.42 1080.98 318.255 1083.02Z" fill="black"/>
<path d="M571.38 715.466C576.85 716.725 582.146 712.485 583.209 705.996C584.273 699.506 580.701 693.225 575.232 691.966C569.762 690.706 564.466 694.946 563.403 701.436C562.339 707.925 565.911 714.206 571.38 715.466Z" fill="#3F3D56"/>
<path d="M393.616 930.599L155.575 875.794L136.803 664.185L479.394 743.061L478.89 744.165L393.616 930.599ZM156.998 874.245L392.795 928.534L477.021 744.39L138.566 666.467L156.998 874.245Z" fill="#201F30"/>
<path d="M314.198 871.703L184.256 869.1L157.709 758.438L344.723 762.184L344.544 762.829L314.198 871.703Z" fill="black"/>
<path d="M486.588 726.198L485.191 725.396L502.612 682.75L561.096 696.215L560.8 698.023L503.489 684.828L486.588 726.198Z" fill="#201F30"/>
<path d="M452.351 799.677L143.523 728.575L143.227 730.382L452.055 801.485L452.351 799.677Z" fill="#201F30"/>
<path d="M423.751 862.204L149.782 799.127L149.486 800.935L423.455 864.011L423.751 862.204Z" fill="#201F30"/>
<path d="M308.708 704.701L307.185 704.35L274.746 902.292L276.27 902.643L308.708 704.701Z" fill="#201F30"/>
<path d="M376.931 720.35L333.557 915.769L335.058 916.237L378.432 720.818L376.931 720.35Z" fill="#201F30"/>
<path d="M239.013 688.594L237.473 688.361L215.908 888.807L217.448 889.04L239.013 688.594Z" fill="#201F30"/>
<path d="M542.484 343.331C542.484 343.331 555.803 388.307 547.607 395.227C539.411 402.146 575.27 458.655 575.27 458.655L618.3 444.816L594.736 397.533C594.736 397.533 591.662 350.251 591.662 343.331C591.662 336.412 542.484 343.331 542.484 343.331Z" fill="#FFD6BA"/>
<path opacity="0.1" d="M542.484 343.331C542.484 343.331 555.803 388.307 547.607 395.227C539.411 402.146 575.27 458.655 575.27 458.655L618.3 444.816L594.736 397.533C594.736 397.533 591.662 350.251 591.662 343.331C591.662 336.412 542.484 343.331 542.484 343.331Z" fill="black"/>
<path d="M520.128 663.932C520.128 663.932 516.24 721.594 520.128 751.579C524.016 781.563 529.848 864.596 529.848 864.596C529.848 864.596 529.848 1021.44 551.232 1023.74C572.616 1026.05 588.168 1028.36 590.112 1019.13C592.056 1009.9 580.392 1005.29 586.224 1000.68C592.056 996.065 594 979.92 586.224 961.468C578.448 943.016 586.224 756.192 586.224 756.192L623.16 873.822C623.16 873.822 627.048 970.694 630.936 984.533C634.824 998.372 627.048 1023.74 640.656 1026.05C654.264 1028.36 669.816 1014.52 677.592 1009.9C685.368 1005.29 665.928 1005.29 669.816 1002.98C673.704 1000.68 685.368 993.759 681.48 991.452C677.592 989.146 673.704 878.435 673.704 878.435C673.704 878.435 663.012 642.021 649.404 632.795C635.796 623.569 627.048 639.46 627.048 639.46L520.128 663.932Z" fill="black"/>
<path d="M555.12 1014.52V1032.97C555.12 1032.97 537.624 1083.13 555.12 1083.13C572.616 1083.13 586.224 1088.32 586.224 1081.4V1019.13L555.12 1014.52Z" fill="#201F30"/>
<path d="M664.78 1012.69L667.334 1030.9C667.334 1030.9 691.535 1076.97 674.276 1080.37C657.017 1083.78 644.313 1091.55 643.355 1084.72L634.736 1023.29L664.78 1012.69Z" fill="#201F30"/>
<path d="M553.444 374.589C572.07 380.693 591.349 367.725 596.503 345.625C601.658 323.525 590.736 300.661 572.11 294.558C553.483 288.454 534.204 301.422 529.05 323.522C523.895 345.622 534.817 368.486 553.444 374.589Z" fill="#FFD6BA"/>
<path d="M559.007 412.526C559.007 412.526 568.727 447.124 584.279 440.204L599.831 433.285L627.047 654.706C627.047 654.706 605.663 691.61 574.559 668.545C543.455 645.481 559.007 412.526 559.007 412.526Z" fill="white"/>
<path d="M586.225 405.606L594.973 383.695C594.973 383.695 646.488 412.526 654.264 421.752C662.04 430.978 662.04 444.816 662.04 444.816L648.432 502.478C648.432 502.478 652.32 629.335 652.32 633.948C652.32 638.561 665.928 663.932 656.208 654.706C646.488 645.48 644.544 636.254 636.768 650.093C628.992 663.932 611.497 680.077 611.497 680.077L586.225 405.606Z" fill="#494949"/>
<path d="M654.263 571.673L648.431 636.255C648.431 636.255 613.439 673.158 621.215 675.465C628.991 677.771 632.879 668.545 632.879 668.545C632.879 668.545 646.487 684.691 654.263 675.465C662.039 666.239 681.479 578.593 681.479 578.593L654.263 571.673Z" fill="#FFD6BA"/>
<path d="M576.687 278.255C569.284 275.488 561.319 272.71 553.9 275.425C550.44 276.873 547.207 278.994 544.333 281.701C536.046 288.898 528.038 298.747 527.654 310.92L530.589 310.562C529.877 313.612 528.603 316.437 526.859 318.831C527.532 317.667 528.296 320.156 527.658 321.348L522.091 331.75C527.374 331.235 532.356 337.415 531.687 343.653C535.097 330.57 539.779 315.821 550.6 311.052C556.057 308.647 562.091 309.345 567.876 310.103C573.212 310.803 578.785 311.63 583.214 315.229C587.642 318.828 590.425 326.132 587.917 331.766C590.388 331.583 592.477 334.276 593.008 337.145C593.54 340.014 592.909 342.987 592.283 345.829C594.217 348.634 597.889 345.526 599.638 342.552C603.743 335.57 607.709 328.006 608.352 319.53C608.994 311.053 605.25 301.525 598.343 299.232C599.437 298.413 600.22 297.122 600.527 295.631L594.961 293.192C596.465 293.423 597.989 293.027 599.274 292.071C596.289 294.309 580.35 279.625 576.687 278.255Z" fill="#201F30"/>
<path d="M568.728 398.687C568.728 398.687 552.902 380.288 547.207 381.415C541.512 382.542 533.736 398.687 533.736 398.687C533.736 398.687 487.08 417.139 489.024 435.591C490.968 454.043 512.352 543.995 512.352 543.995C512.352 543.995 529.848 652.4 514.296 663.932C498.744 675.465 588.167 705.449 590.111 691.61C592.055 677.771 595.943 539.383 590.111 518.624C584.279 497.866 568.728 398.687 568.728 398.687Z" fill="#494949"/>
<path d="M636.768 435.591H660.805C660.805 435.591 677.591 523.237 679.535 532.463C681.479 541.689 685.367 585.512 683.423 585.512C681.479 585.512 642.6 576.286 642.6 583.205L636.768 435.591Z" fill="#494949"/>
<path d="M635.953 667.313H543.931C534.951 618.3 534.201 570.946 543.931 525.702H635.953C621.103 570.132 620.175 617.162 635.953 667.313Z" fill="#D2FF28"/>
<path d="M506.52 599.772L533.735 613.611C533.735 613.611 586.223 622.837 586.223 597.466C586.223 572.095 533.735 585.933 533.735 585.933L516.238 579.296L506.52 599.772Z" fill="#FFD6BA"/>
<path d="M512.352 421.752L489.024 428.671L471.528 550.915C471.528 550.915 465.696 583.205 475.416 585.512C485.136 587.818 512.352 606.27 512.352 606.27C512.352 606.27 516.24 571.673 524.016 571.673L504.576 553.221L516.24 472.495L512.352 421.752Z" fill="#494949"/>
<path d="M182.448 657.937H54.8926V660.099H182.448V657.937Z" fill="#494949"/>
<path d="M91.3378 638.479H89.5156V658.477H91.3378V638.479Z" fill="#494949"/>
<path d="M146.915 638.479H145.093V658.477H146.915V638.479Z" fill="#494949"/>
<path d="M227.092 337.961H99.5371V340.123H227.092V337.961Z" fill="#494949"/>
<path d="M192.471 339.583H190.648V359.581H192.471V339.583Z" fill="#494949"/>
<path d="M136.893 339.583H135.071V359.581H136.893V339.583Z" fill="#494949"/>
<path d="M380.333 550.918H252.777V553.08H380.333V550.918Z" fill="#494949"/>
<path d="M345.711 552.54H343.889V572.538H345.711V552.54Z" fill="#494949"/>
<path d="M290.133 552.54H288.311V572.538H290.133V552.54Z" fill="#494949"/>
<path d="M138.715 549.837H11.1602V551.999H138.715V549.837Z" fill="#494949"/>
<path d="M104.094 551.458H102.271V571.456H104.094V551.458Z" fill="#494949"/>
<path d="M48.5146 551.458H46.6924V571.456H48.5146V551.458Z" fill="#494949"/>
<path d="M291.781 441.737H164.226V443.899H291.781V441.737Z" fill="#494949"/>
<path d="M200.671 422.279H198.849V442.277H200.671V422.279Z" fill="#494949"/>
<path d="M256.248 422.279H254.426V442.277H256.248V422.279Z" fill="#494949"/>
</svg>
